<?xml version="1.0" encoding="UTF-8" standalone="no"?>
<svg width="100%" height="100%" viewBox="0 0 120 120" version="1.1" xmlns="http://www.w3.org/2000/svg" xmlns:xlink="http://www.w3.org/1999/xlink">
    <!-- Generator: Sketch 43.2 (39069) - http://www.bohemiancoding.com/sketch -->
    <title>github</title>
    <desc>Created with Sketch.</desc>
    <defs></defs>
    <g id="Page-1" stroke="none" stroke-width="1" fill="none" fill-rule="evenodd">
        <g id="github" fill-rule="nonzero">
            <g transform="translate(10.000000, 10.000000)">
                <path d="M48.3870968,3.21647526 C21.6532258,3.21647526 0,24.8191272 0,51.4636042 C0,72.7848146 13.8629032,90.8654261 33.0846774,97.2380677 C35.5040323,97.6923949 36.391129,96.2007545 36.391129,94.918185 C36.391129,93.7723156 36.3508065,90.7367671 36.3306452,86.716173 C22.8709677,89.6270832 20.0322581,80.2430166 20.0322581,80.2430166 C17.8306452,74.6744938 14.6491935,73.186874 14.6491935,73.186874 C10.266129,70.195552 14.9879032,70.2558609 14.9879032,70.2558609 C19.8467742,70.5935908 22.3991935,75.2253152 22.3991935,75.2253152 C26.7137097,82.6031053 33.7258065,80.4721904 36.4919355,79.2378681 C36.9274194,76.1178871 38.1733871,73.9909928 39.5564516,72.7848146 C28.8104839,71.5786363 17.516129,67.4293833 17.516129,48.9426917 C17.516129,43.6757135 19.391129,39.3736778 22.4959677,35.9963788 C21.9516129,34.7781388 20.3185484,29.873014 22.9193548,23.226972 C22.9193548,23.226972 26.9717742,21.9323407 36.2258065,28.1723027 C40.0967742,27.0988041 44.2096774,26.5680857 48.3225806,26.5439621 C52.4354839,26.5680857 56.5483871,27.0988041 60.4193548,28.1723027 C69.6129032,21.9323407 73.6653226,23.226972 73.6653226,23.226972 C76.266129,29.873014 74.6330645,34.7781388 74.1491935,35.9963788 C77.233871,39.3736778 79.108871,43.6757135 79.108871,48.9426917 C79.108871,67.4776304 67.7983871,71.5585334 57.0322581,72.7446086 C58.7258065,74.1920225 60.2983871,77.1511797 60.2983871,81.6703275 C60.2983871,88.1274016 60.2379032,93.3139679 60.2379032,94.8819996 C60.2379032,96.1484867 61.0846774,97.6562095 63.5645161,97.1737382 C82.9233871,90.8453232 96.7741935,72.7526498 96.7741935,51.4636042 C96.7741935,24.8191272 75.108871,3.21647526 48.3870968,3.21647526" id="Shape" stroke="#4100CC"></path>
                <path d="M51.6129032,0 C24.8790323,0 3.22580645,21.602652 3.22580645,48.2471289 C3.22580645,69.5683393 17.0887097,87.6489509 36.3104839,94.0215925 C38.7298387,94.4759196 39.6169355,92.9842792 39.6169355,91.7017097 C39.6169355,90.5558404 39.5766129,87.5202919 39.5564516,83.4996978 C26.0967742,86.4106079 23.2580645,77.0265413 23.2580645,77.0265413 C21.0564516,71.4580185 17.875,69.9703987 17.875,69.9703987 C13.4919355,66.9790767 18.2137097,67.0393856 18.2137097,67.0393856 C23.0725806,67.3771155 25.625,72.0088399 25.625,72.0088399 C29.9395161,79.38663 36.9516129,77.2557152 39.7177419,76.0213928 C40.1532258,72.9014118 41.3991935,70.7745175 42.7822581,69.5683393 C32.0362903,68.3621611 20.7419355,64.212908 20.7419355,45.7262164 C20.7419355,40.4592382 22.6169355,36.1572025 25.7217742,32.7799035 C25.1774194,31.5616635 23.5443548,26.6565387 26.1451613,20.0104967 C26.1451613,20.0104967 30.1975806,18.7158654 39.4516129,24.9558274 C43.3225806,23.8823288 47.4354839,23.3516104 51.5483871,23.3274868 C55.6612903,23.3516104 59.7741935,23.8823288 63.6451613,24.9558274 C72.8387097,18.7158654 76.891129,20.0104967 76.891129,20.0104967 C79.4919355,26.6565387 77.858871,31.5616635 77.375,32.7799035 C80.4596774,36.1572025 82.3346774,40.4592382 82.3346774,45.7262164 C82.3346774,64.2611551 71.0241935,68.3420581 60.2580645,69.5281334 C61.9516129,70.9755472 63.5241935,73.9347045 63.5241935,78.4538522 C63.5241935,84.9109263 63.4637097,90.0974927 63.4637097,91.6655244 C63.4637097,92.9320115 64.3104839,94.4397343 66.7903226,93.957263 C86.1491935,87.6288479 100,69.5361746 100,48.2471289 C100,21.602652 78.3346774,2.45506586e-15 51.6129032,2.45506586e-15" id="Shape-Copy" stroke="#D80657"></path>
                <path d="M51.6129032,6.43295052 C24.8790323,6.43295052 3.22580645,28.0356025 3.22580645,54.6800794 C3.22580645,76.0012898 17.0887097,94.0819014 36.3104839,100.454543 C38.7298387,100.90887 39.6169355,99.4172297 39.6169355,98.1346602 C39.6169355,96.9887909 39.5766129,93.9532424 39.5564516,89.9326483 C26.0967742,92.8435584 23.2580645,83.4594918 23.2580645,83.4594918 C21.0564516,77.890969 17.875,76.4033492 17.875,76.4033492 C13.4919355,73.4120272 18.2137097,73.4723362 18.2137097,73.4723362 C23.0725806,73.8100661 25.625,78.4417904 25.625,78.4417904 C29.9395161,85.8195806 36.9516129,83.6886657 39.7177419,82.4543433 C40.1532258,79.3343623 41.3991935,77.2074681 42.7822581,76.0012898 C32.0362903,74.7951116 20.7419355,70.6458585 20.7419355,52.159167 C20.7419355,46.8921887 22.6169355,42.5901531 25.7217742,39.212854 C25.1774194,37.994614 23.5443548,33.0894892 26.1451613,26.4434472 C26.1451613,26.4434472 30.1975806,25.1488159 39.4516129,31.388778 C43.3225806,30.3152793 47.4354839,29.7845609 51.5483871,29.7604374 C55.6612903,29.7845609 59.7741935,30.3152793 63.6451613,31.388778 C72.8387097,25.1488159 76.891129,26.4434472 76.891129,26.4434472 C79.4919355,33.0894892 77.858871,37.994614 77.375,39.212854 C80.4596774,42.5901531 82.3346774,46.8921887 82.3346774,52.159167 C82.3346774,70.6941056 71.0241935,74.7750086 60.2580645,75.9610839 C61.9516129,77.4084978 63.5241935,80.367655 63.5241935,84.8868027 C63.5241935,91.3438768 63.4637097,96.5304432 63.4637097,98.0984749 C63.4637097,99.364962 64.3104839,100.872685 66.7903226,100.390213 C86.1491935,94.0617984 100,75.9691251 100,54.6800794 C100,28.0356025 78.3346774,6.43295052 51.6129032,6.43295052" id="Shape-Copy-2" stroke="#EFBD3E"></path>
            </g>
        </g>
    </g>
</svg>
