<?xml version="1.0" encoding="UTF-8" standalone="no"?>
<svg width="100%" height="auto" viewBox="0 0 120 120" version="1.1" xmlns="http://www.w3.org/2000/svg" xmlns:xlink="http://www.w3.org/1999/xlink">
    <!-- Generator: Sketch 43.2 (39069) - http://www.bohemiancoding.com/sketch -->
    <title>instagram</title>
    <desc>Created with Sketch.</desc>
    <defs></defs>
    <g id="Page-1" stroke="none" stroke-width="1" fill="none" fill-rule="evenodd">
        <g id="instagram" fill-rule="nonzero">
            <g transform="translate(10.000000, 10.000000)" id="Shape">
                <path d="M50,0 C36.4166667,0 34.7208333,0.0625 29.3875,0.3 C24.0625,0.55 20.4375,1.3875 17.25,2.625 C13.9625,3.9 11.1708333,5.6125 8.39166667,8.39166667 C5.6125,11.1708333 3.89583333,13.9583333 2.625,17.25 C1.3875,20.4375 0.545833333,24.0625 0.3,29.3875 C0.05,34.7208333 0,36.4166667 0,50 C0,63.5833333 0.0625,65.2791667 0.3,70.6125 C0.55,75.9333333 1.3875,79.5625 2.625,82.75 C3.9,86.0333333 5.6125,88.8291667 8.39166667,91.6083333 C11.1708333,94.3833333 13.9583333,96.1041667 17.25,97.375 C20.4416667,98.6083333 24.0666667,99.4541667 29.3875,99.7 C34.7208333,99.95 36.4166667,100 50,100 C63.5833333,100 65.2791667,99.9375 70.6125,99.7 C75.9333333,99.45 79.5625,98.6083333 82.75,97.375 C86.0333333,96.1 88.8291667,94.3833333 91.6083333,91.6083333 C94.3833333,88.8291667 96.1041667,86.0458333 97.375,82.75 C98.6083333,79.5625 99.4541667,75.9333333 99.7,70.6125 C99.95,65.2791667 100,63.5833333 100,50 C100,36.4166667 99.9375,34.7208333 99.7,29.3875 C99.45,24.0666667 98.6083333,20.4333333 97.375,17.25 C96.1,13.9625 94.3833333,11.1708333 91.6083333,8.39166667 C88.8291667,5.6125 86.0458333,3.89583333 82.75,2.625 C79.5625,1.3875 75.9333333,0.545833333 70.6125,0.3 C65.2791667,0.05 63.5833333,0 50,0 Z M50,9 C63.3458333,9 64.9375,9.06666667 70.2083333,9.29583333 C75.0833333,9.525 77.7291667,10.3333333 79.4875,11.025 C81.8291667,11.9291667 83.4875,13.0125 85.2458333,14.7583333 C86.9916667,16.5083333 88.075,18.1708333 88.9791667,20.5125 C89.6625,22.2708333 90.4791667,24.9166667 90.7,29.7916667 C90.9375,35.0666667 90.9916667,36.65 90.9916667,50 C90.9916667,63.35 90.9291667,64.9375 90.6833333,70.2083333 C90.4291667,75.0833333 89.6166667,77.7291667 88.9291667,79.4875 C87.9958333,81.8291667 86.9333333,83.4875 85.1833333,85.2458333 C83.4375,86.9916667 81.75,88.075 79.4333333,88.9791667 C77.6833333,89.6625 74.9958333,90.4791667 70.1208333,90.7 C64.8125,90.9375 63.25,90.9916667 49.875,90.9916667 C36.4958333,90.9916667 34.9333333,90.9291667 29.6291667,90.6833333 C24.75,90.4291667 22.0625,89.6166667 20.3125,88.9291667 C17.9416667,87.9958333 16.3125,86.9333333 14.5666667,85.1833333 C12.8125,83.4375 11.6916667,81.75 10.8166667,79.4333333 C10.1291667,77.6833333 9.32083333,74.9958333 9.06666667,70.1208333 C8.87916667,64.8708333 8.8125,63.25 8.8125,49.9375 C8.8125,36.6208333 8.87916667,34.9958333 9.06666667,29.6833333 C9.32083333,24.8083333 10.1291667,22.125 10.8166667,20.375 C11.6916667,18 12.8125,16.375 14.5666667,14.6208333 C16.3125,12.875 17.9416667,11.75 20.3125,10.8791667 C22.0625,10.1875 24.6916667,9.375 29.5666667,9.125 C34.8791667,8.9375 36.4416667,8.875 49.8125,8.875 L50,9 L50,9 Z M50,24.325 C35.8125,24.325 24.325,35.825 24.325,50 C24.325,64.1875 35.825,75.675 50,75.675 C64.1875,75.675 75.675,64.175 75.675,50 C75.675,35.8125 64.175,24.325 50,24.325 Z M50,66.6666667 C40.7916667,66.6666667 33.3333333,59.2083333 33.3333333,50 C33.3333333,40.7916667 40.7916667,33.3333333 50,33.3333333 C59.2083333,33.3333333 66.6666667,40.7916667 66.6666667,50 C66.6666667,59.2083333 59.2083333,66.6666667 50,66.6666667 Z M82.6916667,23.3125 C82.6916667,26.625 80,29.3125 76.6916667,29.3125 C73.3791667,29.3125 70.6916667,26.6208333 70.6916667,23.3125 C70.6916667,20.0041667 73.3833333,17.3166667 76.6916667,17.3166667 C79.9958333,17.3125 82.6916667,20.0041667 82.6916667,23.3125 Z" stroke="#4100CC"></path>
                <path d="M53,-3 C39.4166667,-3 37.7208333,-2.9375 32.3875,-2.7 C27.0625,-2.45 23.4375,-1.6125 20.25,-0.375 C16.9625,0.9 14.1708333,2.6125 11.3916667,5.39166667 C8.6125,8.17083333 6.89583333,10.9583333 5.625,14.25 C4.3875,17.4375 3.54583333,21.0625 3.3,26.3875 C3.05,31.7208333 3,33.4166667 3,47 C3,60.5833333 3.0625,62.2791667 3.3,67.6125 C3.55,72.9333333 4.3875,76.5625 5.625,79.75 C6.9,83.0333333 8.6125,85.8291667 11.3916667,88.6083333 C14.1708333,91.3833333 16.9583333,93.1041667 20.25,94.375 C23.4416667,95.6083333 27.0666667,96.4541667 32.3875,96.7 C37.7208333,96.95 39.4166667,97 53,97 C66.5833333,97 68.2791667,96.9375 73.6125,96.7 C78.9333333,96.45 82.5625,95.6083333 85.75,94.375 C89.0333333,93.1 91.8291667,91.3833333 94.6083333,88.6083333 C97.3833333,85.8291667 99.1041667,83.0458333 100.375,79.75 C101.608333,76.5625 102.454167,72.9333333 102.7,67.6125 C102.95,62.2791667 103,60.5833333 103,47 C103,33.4166667 102.9375,31.7208333 102.7,26.3875 C102.45,21.0666667 101.608333,17.4333333 100.375,14.25 C99.1,10.9625 97.3833333,8.17083333 94.6083333,5.39166667 C91.8291667,2.6125 89.0458333,0.895833333 85.75,-0.375 C82.5625,-1.6125 78.9333333,-2.45416667 73.6125,-2.7 C68.2791667,-2.95 66.5833333,-3 53,-3 Z M53,6 C66.3458333,6 67.9375,6.06666667 73.2083333,6.29583333 C78.0833333,6.525 80.7291667,7.33333333 82.4875,8.025 C84.8291667,8.92916667 86.4875,10.0125 88.2458333,11.7583333 C89.9916667,13.5083333 91.075,15.1708333 91.9791667,17.5125 C92.6625,19.2708333 93.4791667,21.9166667 93.7,26.7916667 C93.9375,32.0666667 93.9916667,33.65 93.9916667,47 C93.9916667,60.35 93.9291667,61.9375 93.6833333,67.2083333 C93.4291667,72.0833333 92.6166667,74.7291667 91.9291667,76.4875 C90.9958333,78.8291667 89.9333333,80.4875 88.1833333,82.2458333 C86.4375,83.9916667 84.75,85.075 82.4333333,85.9791667 C80.6833333,86.6625 77.9958333,87.4791667 73.1208333,87.7 C67.8125,87.9375 66.25,87.9916667 52.875,87.9916667 C39.4958333,87.9916667 37.9333333,87.9291667 32.6291667,87.6833333 C27.75,87.4291667 25.0625,86.6166667 23.3125,85.9291667 C20.9416667,84.9958333 19.3125,83.9333333 17.5666667,82.1833333 C15.8125,80.4375 14.6916667,78.75 13.8166667,76.4333333 C13.1291667,74.6833333 12.3208333,71.9958333 12.0666667,67.1208333 C11.8791667,61.8708333 11.8125,60.25 11.8125,46.9375 C11.8125,33.6208333 11.8791667,31.9958333 12.0666667,26.6833333 C12.3208333,21.8083333 13.1291667,19.125 13.8166667,17.375 C14.6916667,15 15.8125,13.375 17.5666667,11.6208333 C19.3125,9.875 20.9416667,8.75 23.3125,7.87916667 C25.0625,7.1875 27.6916667,6.375 32.5666667,6.125 C37.8791667,5.9375 39.4416667,5.875 52.8125,5.875 L53,6 L53,6 Z M53,21.325 C38.8125,21.325 27.325,32.825 27.325,47 C27.325,61.1875 38.825,72.675 53,72.675 C67.1875,72.675 78.675,61.175 78.675,47 C78.675,32.8125 67.175,21.325 53,21.325 Z M53,63.6666667 C43.7916667,63.6666667 36.3333333,56.2083333 36.3333333,47 C36.3333333,37.7916667 43.7916667,30.3333333 53,30.3333333 C62.2083333,30.3333333 69.6666667,37.7916667 69.6666667,47 C69.6666667,56.2083333 62.2083333,63.6666667 53,63.6666667 Z M85.6916667,20.3125 C85.6916667,23.625 83,26.3125 79.6916667,26.3125 C76.3791667,26.3125 73.6916667,23.6208333 73.6916667,20.3125 C73.6916667,17.0041667 76.3833333,14.3166667 79.6916667,14.3166667 C82.9958333,14.3125 85.6916667,17.0041667 85.6916667,20.3125 Z" stroke="#D80657"></path>
            </g>
            <path d="M64,13 C50.4166667,13 48.7208333,13.0625 43.3875,13.3 C38.0625,13.55 34.4375,14.3875 31.25,15.625 C27.9625,16.9 25.1708333,18.6125 22.3916667,21.3916667 C19.6125,24.1708333 17.8958333,26.9583333 16.625,30.25 C15.3875,33.4375 14.5458333,37.0625 14.3,42.3875 C14.05,47.7208333 14,49.4166667 14,63 C14,76.5833333 14.0625,78.2791667 14.3,83.6125 C14.55,88.9333333 15.3875,92.5625 16.625,95.75 C17.9,99.0333333 19.6125,101.829167 22.3916667,104.608333 C25.1708333,107.383333 27.9583333,109.104167 31.25,110.375 C34.4416667,111.608333 38.0666667,112.454167 43.3875,112.7 C48.7208333,112.95 50.4166667,113 64,113 C77.5833333,113 79.2791667,112.9375 84.6125,112.7 C89.9333333,112.45 93.5625,111.608333 96.75,110.375 C100.033333,109.1 102.829167,107.383333 105.608333,104.608333 C108.383333,101.829167 110.104167,99.0458333 111.375,95.75 C112.608333,92.5625 113.454167,88.9333333 113.7,83.6125 C113.95,78.2791667 114,76.5833333 114,63 C114,49.4166667 113.9375,47.7208333 113.7,42.3875 C113.45,37.0666667 112.608333,33.4333333 111.375,30.25 C110.1,26.9625 108.383333,24.1708333 105.608333,21.3916667 C102.829167,18.6125 100.045833,16.8958333 96.75,15.625 C93.5625,14.3875 89.9333333,13.5458333 84.6125,13.3 C79.2791667,13.05 77.5833333,13 64,13 Z M64,22 C77.3458333,22 78.9375,22.0666667 84.2083333,22.2958333 C89.0833333,22.525 91.7291667,23.3333333 93.4875,24.025 C95.8291667,24.9291667 97.4875,26.0125 99.2458333,27.7583333 C100.991667,29.5083333 102.075,31.1708333 102.979167,33.5125 C103.6625,35.2708333 104.479167,37.9166667 104.7,42.7916667 C104.9375,48.0666667 104.991667,49.65 104.991667,63 C104.991667,76.35 104.929167,77.9375 104.683333,83.2083333 C104.429167,88.0833333 103.616667,90.7291667 102.929167,92.4875 C101.995833,94.8291667 100.933333,96.4875 99.1833333,98.2458333 C97.4375,99.9916667 95.75,101.075 93.4333333,101.979167 C91.6833333,102.6625 88.9958333,103.479167 84.1208333,103.7 C78.8125,103.9375 77.25,103.991667 63.875,103.991667 C50.4958333,103.991667 48.9333333,103.929167 43.6291667,103.683333 C38.75,103.429167 36.0625,102.616667 34.3125,101.929167 C31.9416667,100.995833 30.3125,99.9333333 28.5666667,98.1833333 C26.8125,96.4375 25.6916667,94.75 24.8166667,92.4333333 C24.1291667,90.6833333 23.3208333,87.9958333 23.0666667,83.1208333 C22.8791667,77.8708333 22.8125,76.25 22.8125,62.9375 C22.8125,49.6208333 22.8791667,47.9958333 23.0666667,42.6833333 C23.3208333,37.8083333 24.1291667,35.125 24.8166667,33.375 C25.6916667,31 26.8125,29.375 28.5666667,27.6208333 C30.3125,25.875 31.9416667,24.75 34.3125,23.8791667 C36.0625,23.1875 38.6916667,22.375 43.5666667,22.125 C48.8791667,21.9375 50.4416667,21.875 63.8125,21.875 L64,22 L64,22 Z M64,37.325 C49.8125,37.325 38.325,48.825 38.325,63 C38.325,77.1875 49.825,88.675 64,88.675 C78.1875,88.675 89.675,77.175 89.675,63 C89.675,48.8125 78.175,37.325 64,37.325 Z M64,79.6666667 C54.7916667,79.6666667 47.3333333,72.2083333 47.3333333,63 C47.3333333,53.7916667 54.7916667,46.3333333 64,46.3333333 C73.2083333,46.3333333 80.6666667,53.7916667 80.6666667,63 C80.6666667,72.2083333 73.2083333,79.6666667 64,79.6666667 Z M96.6916667,36.3125 C96.6916667,39.625 94,42.3125 90.6916667,42.3125 C87.3791667,42.3125 84.6916667,39.6208333 84.6916667,36.3125 C84.6916667,33.0041667 87.3833333,30.3166667 90.6916667,30.3166667 C93.9958333,30.3125 96.6916667,33.0041667 96.6916667,36.3125 Z" id="Shape" stroke="#EFBD3E"></path>
        </g>
    </g>
</svg>
