<?xml version="1.0" encoding="UTF-8" standalone="no"?>
<svg width="100%" height="100%" viewBox="0 0 120 120" version="1.1" xmlns="http://www.w3.org/2000/svg" xmlns:xlink="http://www.w3.org/1999/xlink">
    <!-- Generator: Sketch 43.2 (39069) - http://www.bohemiancoding.com/sketch -->
    <title>linkedin</title>
    <desc>Created with Sketch.</desc>
    <defs></defs>
    <g id="Page-1" stroke="none" stroke-width="1" fill="none" fill-rule="evenodd">
        <g id="linkedin" fill-rule="nonzero">
            <g transform="translate(12.000000, 9.000000)" id="Shape">
                <path d="M81.788,84.808 L67.572,84.808 L67.572,62.532 C67.572,57.22 67.464,50.384 60.164,50.384 C52.752,50.384 51.62,56.164 51.62,62.14 L51.62,84.808 L37.404,84.808 L37.404,39 L51.06,39 L51.06,45.244 L51.244,45.244 C53.152,41.644 57.792,37.844 64.724,37.844 C79.128,37.844 81.792,47.324 81.792,59.664 L81.792,84.808 L81.788,84.808 Z M21.348,32.732 C16.772,32.732 13.096,29.028 13.096,24.472 C13.096,19.92 16.776,16.22 21.348,16.22 C25.908,16.22 29.604,19.92 29.604,24.472 C29.604,29.028 25.904,32.732 21.348,32.732 Z M28.476,84.808 L14.22,84.808 L14.22,39 L28.476,39 L28.476,84.808 Z M88.9,3 L7.084,3 C3.168,3 0,6.096 0,9.916 L0,92.084 C0,95.908 3.168,99 7.084,99 L88.888,99 C92.8,99 96,95.908 96,92.084 L96,9.916 C96,6.096 92.8,3 88.888,3 L88.9,3 Z" stroke="#4100CC"></path>
                <path d="M84.788,81.808 L70.572,81.808 L70.572,59.532 C70.572,54.22 70.464,47.384 63.164,47.384 C55.752,47.384 54.62,53.164 54.62,59.14 L54.62,81.808 L40.404,81.808 L40.404,36 L54.06,36 L54.06,42.244 L54.244,42.244 C56.152,38.644 60.792,34.844 67.724,34.844 C82.128,34.844 84.792,44.324 84.792,56.664 L84.792,81.808 L84.788,81.808 Z M24.348,29.732 C19.772,29.732 16.096,26.028 16.096,21.472 C16.096,16.92 19.776,13.22 24.348,13.22 C28.908,13.22 32.604,16.92 32.604,21.472 C32.604,26.028 28.904,29.732 24.348,29.732 Z M31.476,81.808 L17.22,81.808 L17.22,36 L31.476,36 L31.476,81.808 Z M91.9,0 L10.084,0 C6.168,0 3,3.096 3,6.916 L3,89.084 C3,92.908 6.168,96 10.084,96 L91.888,96 C95.8,96 99,92.908 99,89.084 L99,6.916 C99,3.096 95.8,0 91.888,0 L91.9,0 Z" stroke="#D80657"></path>
                <path d="M85.788,87.808 L71.572,87.808 L71.572,65.532 C71.572,60.22 71.464,53.384 64.164,53.384 C56.752,53.384 55.62,59.164 55.62,65.14 L55.62,87.808 L41.404,87.808 L41.404,42 L55.06,42 L55.06,48.244 L55.244,48.244 C57.152,44.644 61.792,40.844 68.724,40.844 C83.128,40.844 85.792,50.324 85.792,62.664 L85.792,87.808 L85.788,87.808 Z M25.348,35.732 C20.772,35.732 17.096,32.028 17.096,27.472 C17.096,22.92 20.776,19.22 25.348,19.22 C29.908,19.22 33.604,22.92 33.604,27.472 C33.604,32.028 29.904,35.732 25.348,35.732 Z M32.476,87.808 L18.22,87.808 L18.22,42 L32.476,42 L32.476,87.808 Z M92.9,6 L11.084,6 C7.168,6 4,9.096 4,12.916 L4,95.084 C4,98.908 7.168,102 11.084,102 L92.888,102 C96.8,102 100,98.908 100,95.084 L100,12.916 C100,9.096 96.8,6 92.888,6 L92.9,6 Z" stroke="#EFBD3E"></path>
            </g>
        </g>
    </g>
</svg>
