
<svg id="sawwaves" width="100%" height="193px" viewBox="0 0 487 193" version="1.1" xmlns="http://www.w3.org/2000/svg" xmlns:xlink="http://www.w3.org/1999/xlink">
    <desc>sawwaves</desc>
    <defs>
        <linearGradient x1="62.1649354%" y1="100%" x2="62.1649325%" y2="3.60822483e-14%" id="wave1-lg">
            <stop stop-color="#EFBD3E" offset="0%"></stop>
            <stop stop-color="#D80657" offset="100%"></stop>
        </linearGradient>
        <linearGradient x1="50%" y1="1.47879464%" x2="50%" y2="100%" id="wave2-lg">
            <stop stop-color="#864CFF" offset="0%"></stop>
            <stop stop-color="#D80657" offset="100%"></stop>
        </linearGradient>
        <linearGradient x1="50%" y1="100%" x2="50%" y2="1.47879464%" id="wave3-lg">
            <stop stop-color="#4100CC" offset="0%"></stop>
            <stop stop-color="#04D976" offset="100%"></stop>
        </linearGradient>
    </defs>
    <g id="sawwaves-graphic" stroke="none" stroke-width="1" fill="none" fill-rule="evenodd" stroke-linecap="round" stroke-linejoin="round">
        <g id="256-copy-9" transform="translate(-8.000000, -58.000000)" stroke-width="5">
            <g id="sawwaves-wavegroup" transform="translate(11.000000, 61.000000)">
                <polyline id="wave1" stroke="url(#wave1-lg)" points="40 86.3106171 132.691797 86.3106171 217.725058 5.68434189e-14 217.725058 86.3106171 303.149032 5.68434189e-14 303.149032 86.3106171 387.553376 5.68434189e-14 387.553376 86.3106171 481.401293 86.3106171"></polyline>
                <polyline id="wave2" stroke="url(#wave2-lg)" points="20 136.810617 112.691797 136.810617 197.725058 50.5 197.725058 136.810617 283.149032 50.5 283.149032 136.810617 367.553376 50.5 367.553376 136.810617 461.401293 136.810617"></polyline>
                <polyline id="wave3" stroke="url(#wave3-lg)" points="0 187.310617 92.6917972 187.310617 177.725058 101 177.725058 187.310617 263.149032 101 263.149032 187.310617 347.553376 101 347.553376 187.310617 441.401293 187.310617"></polyline>
            </g>
        </g>
    </g>
</svg>
