<?xml version="1.0" standalone="no"?>
<!DOCTYPE svg PUBLIC "-//W3C//DTD SVG 20010904//EN"
 "http://www.w3.org/TR/2001/REC-SVG-20010904/DTD/svg10.dtd">
<svg version="1.0" xmlns="http://www.w3.org/2000/svg"
 width="300.000000pt" height="300.000000pt" viewBox="0 0 300.000000 300.000000"
 preserveAspectRatio="xMidYMid meet">
<metadata>
Created by potrace 1.11, written by Peter Selinger 2001-2013
</metadata>
<g transform="translate(0.000000,300.000000) scale(0.100000,-0.100000)"
fill="#000000" stroke="none">
<path d="M1099 2258 c-72 -73 -260 -264 -417 -424 -158 -159 -295 -299 -305
-311 -20 -23 -13 -53 13 -53 10 0 187 172 416 405 l399 406 5 -403 c5 -397 5
-403 25 -406 16 -2 119 96 417 396 217 220 400 402 404 405 6 3 9 -162 9 -386
-1 -224 3 -397 8 -404 19 -26 42 -11 136 86 53 54 231 237 396 405 l300 307 5
-403 5 -403 25 0 25 0 3 452 2 452 -22 6 c-18 6 -44 -16 -172 -148 -434 -447
-641 -657 -646 -657 -3 0 -5 178 -5 396 0 372 -1 398 -18 408 -16 10 -70 -41
-422 -396 -223 -225 -407 -408 -410 -408 -3 0 -6 181 -7 402 -3 374 -4 403
-20 406 -12 2 -62 -42 -149 -130z"/>
<path d="M638 1520 c-238 -242 -434 -446 -436 -454 -2 -8 6 -19 17 -25 20 -11
126 92 715 692 l116 119 0 -400 c0 -343 2 -401 15 -412 12 -10 18 -10 32 1 9
8 192 191 407 407 214 215 392 392 395 392 3 0 6 -172 5 -382 0 -211 3 -392 7
-404 4 -11 14 -21 23 -21 13 0 321 310 719 722 l97 100 0 -401 c0 -345 2 -403
15 -414 12 -10 18 -10 30 0 13 11 15 74 15 456 0 428 -1 444 -19 454 -17 8
-28 1 -78 -49 -32 -32 -210 -214 -397 -405 -186 -190 -341 -346 -345 -346 -3
0 -6 174 -5 387 0 214 -1 393 -4 400 -14 43 -40 20 -444 -389 l-408 -413 0
402 c0 385 -1 403 -19 412 -17 9 -74 -45 -453 -429z"/>
<path d="M1361 1129 l-406 -411 -5 403 c-5 399 -5 404 -26 407 -15 2 -123
-101 -450 -433 -236 -240 -431 -441 -432 -446 -5 -12 17 -39 31 -39 5 0 96 88
201 195 105 107 286 290 401 406 l210 212 5 -404 c3 -222 7 -405 8 -406 14
-17 92 56 435 402 220 223 403 403 406 399 3 -3 6 -179 6 -392 0 -213 4 -393
8 -399 5 -7 14 -13 21 -13 10 0 171 161 743 747 34 34 65 63 68 63 3 0 5 -180
5 -400 0 -348 2 -401 15 -406 8 -4 22 -1 30 6 13 11 15 75 15 454 0 467 -1
477 -44 454 -12 -6 -23 -14 -26 -18 -3 -5 -164 -170 -358 -368 -194 -198 -363
-371 -377 -386 -13 -14 -28 -26 -32 -26 -5 0 -8 172 -8 383 1 210 -1 390 -3
399 -11 48 -38 25 -441 -383z"/>
</g>
</svg>
