<?xml version="1.0" standalone="no"?>
<!DOCTYPE svg PUBLIC "-//W3C//DTD SVG 20010904//EN"
 "http://www.w3.org/TR/2001/REC-SVG-20010904/DTD/svg10.dtd">
<svg version="1.0" xmlns="http://www.w3.org/2000/svg"
 width="300.000000pt" height="300.000000pt" viewBox="0 0 300.000000 300.000000"
 preserveAspectRatio="xMidYMid meet">
<metadata>
Created by potrace 1.11, written by Peter Selinger 2001-2013
</metadata>
<g transform="translate(0.000000,300.000000) scale(0.100000,-0.100000)"
fill="#000000" stroke="none">
<path d="M767 2103 c-390 -394 -567 -575 -567 -582 0 -3 15 -20 32 -37 l33
-33 382 387 382 387 1 -133 0 -133 -269 -272 c-373 -376 -561 -570 -561 -576
0 -10 54 -61 64 -61 6 0 180 172 388 383 l377 382 1 -143 0 -143 -274 -277
c-381 -385 -529 -536 -545 -556 -13 -15 -10 -21 20 -52 l33 -35 383 388 382
388 1 -377 c0 -329 2 -379 16 -392 37 -38 49 -28 444 374 211 214 385 388 387
386 2 -2 5 -170 7 -374 3 -394 4 -402 50 -402 23 0 47 23 544 530 l250 255 0
-145 c0 -80 1 -246 1 -370 l1 -226 28 2 c15 1 37 3 50 3 l22 1 0 858 c0 819
-1 860 -18 875 -10 10 -26 17 -36 17 -16 0 -197 -180 -638 -634 l-147 -151 -1
45 c-1 25 -2 195 -4 379 -2 314 -3 334 -21 347 -10 8 -26 14 -35 14 -9 0 -193
-178 -408 -396 l-392 -395 0 380 c0 332 -2 382 -16 395 -8 9 -24 16 -34 16
-11 0 -137 -120 -313 -297z m1118 -12 l-1 -130 -377 -381 -377 -382 0 133 0
134 373 378 c204 207 374 377 377 377 3 0 5 -58 5 -129z m845 0 l0 -130 -224
-228 c-123 -125 -289 -295 -370 -378 -80 -82 -146 -145 -147 -140 -1 11 -1
100 1 200 l1 60 230 235 c396 403 502 510 506 510 2 0 3 -58 3 -129z m-850
-518 l-5 -51 -372 -377 -373 -377 0 144 0 143 373 378 372 378 5 -93 c3 -51 3
-116 0 -145z m848 105 c0 -103 -3 -138 -15 -157 -8 -13 -108 -118 -222 -233
-113 -115 -271 -277 -351 -359 -80 -82 -147 -149 -150 -149 -9 0 -5 278 3 287
5 4 171 173 369 376 198 202 362 367 363 367 1 0 2 -60 3 -132z"/>
</g>
</svg>
