<?xml version="1.0" standalone="no"?>
<!DOCTYPE svg PUBLIC "-//W3C//DTD SVG 20010904//EN"
 "http://www.w3.org/TR/2001/REC-SVG-20010904/DTD/svg10.dtd">
<svg version="1.0" xmlns="http://www.w3.org/2000/svg"
 width="330.000000pt" height="330.000000pt" viewBox="0 0 330.000000 330.000000"
 preserveAspectRatio="xMidYMid meet">
<metadata>
Created by potrace 1.11, written by Peter Selinger 2001-2013
</metadata>
<g transform="translate(0.000000,330.000000) scale(0.100000,-0.100000)"
fill="#000000" stroke="none">
<path d="M1158 2454 c-472 -476 -588 -597 -588 -612 0 -29 21 -52 48 -52 22 0
94 68 414 393 l387 392 1 -373 c0 -238 4 -380 10 -393 7 -12 21 -19 39 -19 23
0 88 61 412 390 211 215 386 390 389 390 3 0 4 -165 4 -368 -1 -395 1 -412 49
-412 24 0 57 33 570 555 l225 230 1 -378 c0 -398 1 -407 45 -407 53 1 51 -15
54 471 2 412 1 453 -14 470 -32 35 -54 23 -162 -88 -371 -382 -657 -673 -662
-673 -3 0 -5 165 -5 367 0 233 -4 374 -10 387 -6 12 -22 22 -36 24 -21 3 -83
-55 -412 -388 -212 -214 -389 -390 -392 -390 -3 0 -5 168 -5 374 0 327 -2 377
-16 390 -8 9 -24 16 -34 16 -12 0 -134 -116 -312 -296z"/>
<path d="M903 1828 c-169 -171 -368 -371 -440 -445 -73 -74 -133 -142 -133
-152 0 -9 6 -24 13 -33 36 -44 33 -47 443 369 l393 398 1 -373 c0 -238 4 -380
10 -393 7 -12 21 -19 39 -19 24 0 87 60 412 390 317 323 385 387 389 370 3
-12 5 -177 4 -368 -1 -215 3 -356 9 -369 7 -16 19 -23 37 -23 22 0 56 29 172
148 80 81 254 257 386 392 l241 245 0 -378 c-1 -401 0 -407 47 -407 55 0 54
-7 54 479 0 421 -1 449 -18 464 -10 10 -27 17 -37 17 -10 0 -79 -63 -157 -142
-77 -79 -248 -254 -381 -390 -133 -136 -244 -245 -247 -242 -3 3 -5 172 -5
376 0 354 -1 370 -19 384 -11 8 -27 14 -36 14 -9 0 -191 -175 -403 -390 -213
-214 -389 -390 -392 -390 -3 0 -5 168 -5 374 0 327 -2 377 -16 390 -8 9 -24
16 -34 16 -12 0 -139 -122 -327 -312z"/>
<path d="M678 1224 c-467 -471 -598 -607 -598 -622 0 -29 21 -52 48 -52 22 0
93 67 414 392 l387 393 1 -373 c0 -237 4 -380 10 -393 7 -12 21 -19 39 -19 24
0 87 60 411 390 211 214 386 387 389 385 3 -2 6 -168 6 -370 0 -392 1 -405 49
-405 23 0 45 22 555 540 l240 245 1 -380 c0 -402 0 -405 46 -405 55 0 54 -6
54 479 0 421 -1 449 -18 464 -10 10 -27 17 -37 17 -10 0 -77 -61 -152 -137
-74 -76 -246 -252 -381 -390 -136 -139 -249 -253 -252 -253 -3 0 -5 165 -5
367 0 232 -4 374 -10 387 -6 12 -22 22 -36 24 -21 3 -83 -56 -417 -393 l-392
-396 0 380 c0 332 -2 382 -16 395 -8 9 -24 16 -34 16 -12 0 -130 -112 -302
-286z"/>
</g>
</svg>
