<?xml version="1.0" encoding="UTF-8" standalone="no"?>
<svg width="100%" height="auto" viewBox="0 0 120 120" version="1.1" xmlns="http://www.w3.org/2000/svg" xmlns:xlink="http://www.w3.org/1999/xlink">
    <!-- Generator: Sketch 43.2 (39069) - http://www.bohemiancoding.com/sketch -->
    <title>tumblr</title>
    <desc>Created with Sketch.</desc>
    <defs></defs>
    <g id="Page-1" stroke="none" stroke-width="1" fill="none" fill-rule="evenodd">
        <g id="tumblr" fill-rule="nonzero">
            <g transform="translate(31.000000, 7.000000)" id="Shape">
                <path d="M39.8458333,103 C18.625,103 10.55,87.35 10.55,76.2875 L10.55,43.6125 L0.483333333,43.6125 L0.483333333,30.7 C15.6083333,25.2291667 19.2833333,11.55 20.1083333,3.74583333 C20.1666667,3.2125 20.5875,3 20.8291667,3 L35.4833333,3 L35.4833333,28.475 L55.4875,28.475 L55.4875,43.6125 L35.4041667,43.6125 L35.4041667,74.7375 C35.4708333,78.9083333 36.9666667,84.6166667 44.6,84.6166667 L44.975,84.6166667 C47.6041667,84.5333333 51.1666667,83.7625 53.0416667,82.8708333 L57.8583333,97.1416667 C56.0416667,99.7916667 47.8583333,102.866667 40.5416667,102.991667 L39.8,102.991667 L39.8458333,103 L39.8458333,103 Z" stroke="#4100CC"></path>
                <path d="M42.8458333,100 C21.625,100 13.55,84.35 13.55,73.2875 L13.55,40.6125 L3.48333333,40.6125 L3.48333333,27.7 C18.6083333,22.2291667 22.2833333,8.55 23.1083333,0.745833333 C23.1666667,0.2125 23.5875,0 23.8291667,0 L38.4833333,0 L38.4833333,25.475 L58.4875,25.475 L58.4875,40.6125 L38.4041667,40.6125 L38.4041667,71.7375 C38.4708333,75.9083333 39.9666667,81.6166667 47.6,81.6166667 L47.975,81.6166667 C50.6041667,81.5333333 54.1666667,80.7625 56.0416667,79.8708333 L60.8583333,94.1416667 C59.0416667,96.7916667 50.8583333,99.8666667 43.5416667,99.9916667 L42.8,99.9916667 L42.8458333,100 L42.8458333,100 Z" stroke="#D80657"></path>
            </g>
            <path d="M74.8458333,113 C53.625,113 45.55,97.35 45.55,86.2875 L45.55,53.6125 L35.4833333,53.6125 L35.4833333,40.7 C50.6083333,35.2291667 54.2833333,21.55 55.1083333,13.7458333 C55.1666667,13.2125 55.5875,13 55.8291667,13 L70.4833333,13 L70.4833333,38.475 L90.4875,38.475 L90.4875,53.6125 L70.4041667,53.6125 L70.4041667,84.7375 C70.4708333,88.9083333 71.9666667,94.6166667 79.6,94.6166667 L79.975,94.6166667 C82.6041667,94.5333333 86.1666667,93.7625 88.0416667,92.8708333 L92.8583333,107.141667 C91.0416667,109.791667 82.8583333,112.866667 75.5416667,112.991667 L74.8,112.991667 L74.8458333,113 L74.8458333,113 Z" id="Shape" stroke="#EFBD3E"></path>
        </g>
    </g>
</svg>
